# xmcd CD database file
#
# Track frame offsets:
#	150
#	22948
#	33913
#	54798
#	80513
#	96218
#	112205
#	133080
#	156205
#	170698
#	189280
#
# Disc length: 2898 seconds
#
# Revision: 2
# Processed by: cddbd v1.5.2PL0 Copyright (c) Steve Scherf et al.
# Submitted via: CDex 1.51
#
DISCID=860b500b
DTITLE=Buddy Guy - Feels Like Rain
DYEAR=1993
DGENRE=Blues
TTITLE0=She's A Superstar
TTITLE1=I Go Crazy
TTITLE2=Feels Like Rain
TTITLE3=She's Nineteen Years Old
TTITLE4=Some Kind Of Wonderful
TTITLE5=Sufferin' Mind
TTITLE6=Change In The Weather
TTITLE7=I Could Cry
TTITLE8=Mary Ann
TTITLE9=Trouble Man
TTITLE10=Country Man
EXTD=YEAR: 1993
EXTT0=
EXTT1=
EXTT2=
EXTT3=
EXTT4=
EXTT5=
EXTT6=
EXTT7=
EXTT8=
EXTT9=
EXTT10=
PLAYORDER=
